<?xml version="1.0" encoding="UTF-8"?>
<svg width="123px" height="123px" viewBox="0 0 123 123" version="1.1" xmlns="http://www.w3.org/2000/svg" xmlns:xlink="http://www.w3.org/1999/xlink">
    <title>Logo</title>
    <g id="Symbols" stroke="none" stroke-width="1" fill="none" fill-rule="evenodd">
        <g id="Footer" transform="translate(-1445.000000, -60.000000)">
            <g id="Logo" transform="translate(1445.000000, 60.000000)">
                <path d="M123,61.5 C123,95.4656395 95.4656395,123 61.5,123 C27.5343605,123 0,95.4656395 0,61.5 C0,27.5343605 27.5343605,0 61.5,0 C95.4656395,0 123,27.5343605 123,61.5" id="Fill-2581" fill="#FFFFFF"></path>
                <path d="M70.9202205,79 C85.8429415,79 97.945976,66.9658767 98,52.0998699 C98.0544559,37.1951783 85.6592382,25 70.7095953,25 L51.7889534,25 C49.1442602,25 47,27.137926 47,29.7755961 L47,74.2244039 C47,76.862074 49.1442602,79 51.7889534,79 L70.9202205,79 Z" id="Fill-2583" fill="#00BFDC"></path>
                <path d="M30.181791,91 L37.818209,91 C40.1274133,91 42,89.132087 42,86.8268672 L42,61.1731328 C42,58.8687096 40.1274133,57 37.818209,57 L30.181791,57 C27.8717885,57 26,58.8687096 26,61.1731328 L26,86.8268672 C26,89.132087 27.8717885,91 30.181791,91" id="Fill-2585" fill="#FFCB05"></path>
                <path d="M42,46.0003991 C42,50.4184585 38.4184585,54 34.0003991,54 C29.5815415,54 26,50.4184585 26,46.0003991 C26,41.5823397 29.5815415,38 34.0003991,38 C38.4184585,38 42,41.5823397 42,46.0003991" id="Fill-2587" fill="#EF4123"></path>
                <path d="M96.7129898,82.9075337 L86.9840222,74.1190612 L55.0178666,45.2140968 L55.0178666,45.2140968 L47,38 L47,48.774559 L47,86.1829041 C47,88.8426992 49.1450129,91 51.7896578,91 L93.2005213,91 C97.3812773,91 99.5555872,85.9909848 96.7129898,82.9075337" id="Fill-2589" fill="#0033A1"></path>
            </g>
        </g>
    </g>
</svg>