<?xml version="1.0" standalone="no"?>
<!DOCTYPE svg PUBLIC "-//W3C//DTD SVG 20010904//EN"
 "http://www.w3.org/TR/2001/REC-SVG-20010904/DTD/svg10.dtd">
<svg version="1.0" xmlns="http://www.w3.org/2000/svg"
 width="512.000000pt" height="512.000000pt" viewBox="0 0 512.000000 512.000000"
 preserveAspectRatio="xMidYMid meet">
<metadata>
Created by potrace 1.16, written by Peter Selinger 2001-2019
</metadata>
<g transform="translate(0.000000,512.000000) scale(0.100000,-0.100000)"
fill="#000000" stroke="none">
<path d="M2325 5113 c-95 -9 -296 -47 -411 -78 -911 -250 -1618 -1012 -1794
-1936 -67 -350 -56 -742 30 -1090 55 -218 153 -462 256 -637 l45 -76 -205
-548 c-150 -398 -206 -560 -206 -591 0 -53 27 -105 70 -135 67 -45 81 -41 698
189 l565 211 126 -61 c331 -159 626 -228 1008 -238 246 -6 371 3 573 44 1052
211 1860 1090 1985 2161 19 162 19 422 0 584 -105 899 -688 1670 -1530 2023
-200 84 -421 142 -655 171 -104 13 -443 17 -555 7z m-447 -1261 c130 -50 293
-216 379 -387 22 -43 53 -157 53 -193 0 -44 -31 -95 -102 -171 -40 -43 -86
-101 -102 -130 -24 -46 -28 -61 -24 -115 3 -54 10 -71 53 -136 56 -85 321
-361 435 -453 179 -144 264 -141 435 13 108 97 130 110 190 110 187 0 489
-220 569 -414 73 -175 -119 -438 -383 -526 -112 -37 -214 -45 -332 -25 -234
39 -487 159 -754 359 -144 108 -468 426 -575 566 -255 332 -390 654 -390 930
0 128 19 210 67 302 65 124 204 236 342 274 64 17 84 17 139 -4z"/>
</g>
</svg>
